<svg xmlns="http://www.w3.org/2000/svg" id="Logo_Artwork" width="130.408" height="29.831" viewBox="0 0 130.408 29.831">
    <defs>
        <style>
            .cls-1{fill:#8cc63f}.cls-2{fill:#29abe2}
        </style>
    </defs>
    <path id="Path_1874" d="M20.3 13.424l-3.475 4.493H0V.44h20.247l-3.5 4.572H5.434V7.1H19.28l-3.109 3.971H5.434v2.379z" class="cls-1" transform="translate(0 -.15)"/>
    <path id="Path_1875" d="M38.476.44l7.837 11.6L54.542.44h6.374L49.735 16.245a6.655 6.655 0 0 1-1.41 1.355 3.514 3.514 0 0 1-2.09.6 3.579 3.579 0 0 1-2.051-.562 5.368 5.368 0 0 1-1.4-1.4L31.84.44z" class="cls-1" transform="translate(-11.045 -.15)"/>
    <path id="Path_1876" d="M139.165 17.9h-7.237l-3.919-4.624h-8.281V17.9h-5.408V8.969h15.2a4.036 4.036 0 0 0 2.116-.522 1.607 1.607 0 0 0 .864-1.437 1.7 1.7 0 0 0-.758-1.528 4.01 4.01 0 0 0-2.194-.509H114.32L117.847.4h11.233a18.189 18.189 0 0 1 3.083.274 9.379 9.379 0 0 1 2.9.98 6.238 6.238 0 0 1 2.155 1.907 5.225 5.225 0 0 1 .849 3.083 5.877 5.877 0 0 1-.314 1.959 5.452 5.452 0 0 1-.9 1.646 5.29 5.29 0 0 1-1.437 1.241 5.878 5.878 0 0 1-1.92.718 9.772 9.772 0 0 1 .993.862c.34.346.856.829 1.463 1.437z" class="cls-2" transform="translate(-39.656 -.136)"/>
    <path id="Path_1877" d="M81.524 6.164l3.135 4.624c.294.418.607.869.927 1.345s.607.875.849 1.189l3.4 4.441h6.175L85.077 1.958a5.368 5.368 0 0 0-1.4-1.4A3.579 3.579 0 0 0 81.628 0a3.54 3.54 0 0 0-2.116.6 6.086 6.086 0 0 0-1.385 1.358L66.92 17.763h6.4z" class="cls-2" transform="translate(-23.214 .004)"/>
    <path id="Path_1878" d="M169.744 6.165l3.135 4.624c.3.418.607.869.927 1.345s.607.875.849 1.189l3.39 4.441h6.178L173.3 1.959a5.271 5.271 0 0 0-1.4-1.4 4.023 4.023 0 0 0-4.168.041 6.087 6.087 0 0 0-1.385 1.358L155.14 17.765h6.4z" class="cls-2" transform="translate(-53.816 .003)"/>
    <path id="Path_1879" d="M.636 37.1v4.3H.1v-4.3z" transform="translate(-.035 -12.867)"/>
    <path id="Path_1880" d="M6.146 38.877c.8 0 1.149.444 1.149 1.476v1.659h-.49v-1.659c0-.758-.229-1.065-.777-1.065s-.849.32-.849 1.065v1.659H4.69v-3.056h.4l.065.359a1.1 1.1 0 0 1 .993-.438z" transform="translate(-1.627 -13.481)"/>
    <path id="Path_1881" d="M13.412 41.25h.4v.411h-.536a.784.784 0 0 1-.875-.843v-1.867h-.49V38.6h.49v-.74h.5v.74h.934v.359h-.954v1.816c-.004.279.159.475.531.475z" transform="translate(-4.131 -13.13)"/>
    <path id="Path_1882" d="M19.167 41.715A.738.738 0 0 0 20 41.1h.47a1.136 1.136 0 0 1-1.306.973c-1.006 0-1.43-.477-1.43-1.594s.418-1.6 1.43-1.6 1.424.5 1.424 1.665v.2h-2.355c.052.67.326.971.934.971zm0-2.469c-.653 0-.94.346-.94 1.169H20.1c-.007-.8-.287-1.169-.94-1.169z" transform="translate(-6.15 -13.484)"/>
    <path id="Path_1883" d="M25.4 37.1h.49v4.3h-.49z" transform="translate(-8.811 -12.867)"/>
    <path id="Path_1884" d="M29.72 37.1h.5v4.3h-.5z" transform="translate(-10.309 -12.867)"/>
    <path id="Path_1885" d="M34.629 37.376c0 .235-.1.34-.353.34s-.346-.1-.346-.34.1-.346.346-.346.353.104.353.346zm-.6 4v-3.059h.5v3.07z" transform="translate(-11.77 -12.842)"/>
    <path id="Path_1886" d="M38.21 40.483c0-1.117.4-1.607 1.306-1.607a1.156 1.156 0 0 1 1.084.5l.085-.425h.4v2.763c0 1.123-.425 1.594-1.424 1.594-.8 0-1.182-.294-1.306-.973h.477a.7.7 0 0 0 .81.614c.653 0 .954-.34.954-1.156v-.157a1.156 1.156 0 0 1-1.052.444c-.936-.01-1.334-.48-1.334-1.597zm2.364 0c0-.843-.268-1.189-.934-1.189s-.914.346-.914 1.189.268 1.182.934 1.182.914-.34.914-1.182z" transform="translate(-13.254 -13.48)"/>
    <path id="Path_1887" d="M47.307 41.715a.738.738 0 0 0 .829-.614h.47a1.136 1.136 0 0 1-1.306.973c-1.006 0-1.43-.477-1.43-1.594s.418-1.6 1.43-1.6 1.424.5 1.424 1.665v.2h-2.351c.052.669.327.97.934.97zm0-2.469c-.653 0-.94.346-.94 1.169h1.874c-.007-.8-.287-1.169-.94-1.169z" transform="translate(-15.912 -13.484)"/>
    <path id="Path_1888" d="M55 38.877c.8 0 1.143.444 1.143 1.476v1.659h-.49v-1.659c0-.758-.229-1.065-.771-1.065s-.856.32-.856 1.065v1.659h-.49v-3.057h.4l.065.359a1.11 1.11 0 0 1 1-.438z" transform="translate(-18.572 -13.481)"/>
    <path id="Path_1889" d="M62.252 41.25h.4v.411H62.1a.784.784 0 0 1-.875-.843v-1.867h-.49V38.6h.49v-.74h.5v.74h.934v.359h-.934v1.816c-.009.279.154.475.527.475z" transform="translate(-21.066 -13.13)"/>
    <path id="Path_1890" d="M73.835 39.768h-1.306v1.639H72v-4.3h1.835c1.052 0 1.483.509 1.483 1.345a1.11 1.11 0 0 1-.934 1.247l.947 1.7h-.575zm-.059-.418c.653 0 .973-.3.973-.9s-.287-.908-.973-.908h-1.267v1.808z" transform="translate(-24.976 -12.87)"/>
    <path id="Path_1891" d="M81.411 41.715a.745.745 0 0 0 .836-.614h.464a1.136 1.136 0 0 1-1.306.973c-.993 0-1.4-.5-1.4-1.594s.425-1.6 1.43-1.6 1.424.5 1.424 1.665v.2h-2.382c.052.669.323.97.934.97zm0-2.469c-.653 0-.94.346-.94 1.169h1.881c-.007-.8-.294-1.169-.947-1.169z" transform="translate(-27.751 -13.484)"/>
    <path id="Path_1892" d="M89.5 41.649a1.117 1.117 0 0 1-1.019.425c-.79 0-1.13-.281-1.13-.947s.411-1.038 1.378-1.038h.738v-.163c0-.5-.229-.712-.758-.712s-.764.189-.764.653h-.47c0-.653.372-.986 1.247-.986s1.234.333 1.234 1.1v2.031h-.4zm-.758-1.234c-.653 0-.9.2-.9.686s.216.588.758.588a.758.758 0 0 0 .869-.869v-.4z" transform="translate(-30.3 -13.484)"/>
    <path id="Path_1893" d="M94.82 37.1h.5v4.3h-.5z" transform="translate(-32.892 -12.867)"/>
    <path id="Path_1894" d="M104.766 37.538v1.4h2.1v.438h-2.1v1.581h2.345v.438h-2.88V37.1h2.88v.438z" transform="translate(-36.156 -12.867)"/>
    <path id="Path_1895" d="M114.112 41.137c0 .653-.372.94-1.247.94s-1.215-.294-1.215-.98h.477c0 .457.216.653.745.653s.751-.157.751-.549c0-.875-1.959-.242-1.959-1.43 0-.614.359-.882 1.182-.882s1.163.281 1.163.921h-.451c0-.418-.2-.588-.712-.588s-.712.144-.712.5c.025.794 1.978.187 1.978 1.415z" transform="translate(-38.73 -13.488)"/>
    <path id="Path_1896" d="M119.952 41.25h.4v.411h-.552a.784.784 0 0 1-.875-.843v-1.867h-.49V38.6h.49v-.74h.536v.74h.927v.359h-.927v1.816c-.006.279.118.475.491.475z" transform="translate(-41.082 -13.13)"/>
    <path id="Path_1897" d="M126.439 41.649a1.117 1.117 0 0 1-1.019.425c-.79 0-1.13-.281-1.13-.947s.411-1.038 1.378-1.038h.738v-.163c0-.5-.222-.712-.758-.712s-.764.189-.764.653h-.47c0-.653.372-.986 1.247-.986s1.234.333 1.234 1.1v2.031h-.4zm-.758-1.234c-.653 0-.9.2-.9.686s.216.588.758.588a.758.758 0 0 0 .869-.869v-.4z" transform="translate(-43.114 -13.484)"/>
    <path id="Path_1898" d="M133 41.25h.4v.411h-.555a.777.777 0 0 1-.869-.843v-1.867h-.5V38.6h.5v-.74h.5v.74h.927v.359h-.927v1.816c-.003.279.153.475.524.475z" transform="translate(-45.608 -13.13)"/>
    <path id="Path_1899" d="M138.767 41.715a.745.745 0 0 0 .836-.614h.464a1.13 1.13 0 0 1-1.306.973c-1 0-1.43-.477-1.43-1.594s.424-1.6 1.43-1.6 1.424.5 1.424 1.665v.2h-2.351c.058.669.325.97.933.97zm0-2.469c-.653 0-.941.346-.941 1.169h1.9c0-.8-.307-1.169-.967-1.169z" transform="translate(-47.638 -13.484)"/>
    <path id="Path_1900" d="M152.926 40.139c0 .914-.477 1.306-1.607 1.306s-1.62-.4-1.62-1.352h.5c0 .653.313.94 1.117.94s1.091-.242 1.091-.816c0-1.215-2.612-.477-2.612-2.012 0-.914.464-1.306 1.554-1.306s1.548.4 1.548 1.352h-.5c0-.653-.307-.94-1.052-.94s-1.038.235-1.038.816c-.026 1.105 2.619.393 2.619 2.012z" transform="translate(-51.929 -12.797)"/>
    <path id="Path_1901" d="M160.718 40.48c0 1.117-.444 1.594-1.483 1.594s-1.5-.477-1.5-1.594.451-1.6 1.5-1.6 1.483.483 1.483 1.6zm-1.5 1.182c.7 0 .993-.346.993-1.182s-.287-1.189-.993-1.189-1.006.346-1.006 1.189.351 1.182 1.004 1.182z" transform="translate(-54.718 -13.484)"/>
    <path id="Path_1902" d="M165.59 37.1h.5v4.3h-.5z" transform="translate(-57.441 -12.867)"/>
    <path id="Path_1903" d="M170.88 42.115c-.8 0-1.149-.438-1.149-1.47V39h.49v1.659c0 .751.229 1.058.777 1.058s.849-.32.849-1.058V39h.5v3.07h-.4l-.065-.366a1.1 1.1 0 0 1-.993.411z" transform="translate(-58.877 -13.526)"/>
    <path id="Path_1904" d="M178.632 41.25h.4v.411h-.555a.784.784 0 0 1-.875-.843v-1.867h-.49V38.6h.49v-.74h.5v.74h.934v.359h-.936v1.816c0 .279.159.475.532.475z" transform="translate(-61.437 -13.13)"/>
    <path id="Path_1905" d="M183.852 37.376c0 .235-.1.34-.353.34s-.34-.1-.34-.34.1-.346.34-.346.353.104.353.346zm-.594 4v-3.059h.5v3.07z" transform="translate(-63.535 -12.842)"/>
    <path id="Path_1906" d="M190.422 40.48c0 1.117-.444 1.594-1.483 1.594s-1.489-.477-1.489-1.594.444-1.6 1.489-1.6 1.483.483 1.483 1.6zm-1.483 1.182c.7 0 .993-.346.993-1.182s-.287-1.189-.993-1.189-1 .346-1 1.189.274 1.182.98 1.182z" transform="translate(-65.024 -13.484)"/>
    <path id="Path_1907" d="M196.719 38.876c.81 0 1.15.444 1.15 1.476v1.659h-.49v-1.658c0-.758-.229-1.065-.771-1.065s-.869.32-.869 1.065v1.659h-.49v-3.057h.4l.065.359a1.1 1.1 0 0 1 1.005-.438z" transform="translate(-67.729 -13.481)"/>
</svg>
